<svg width="108" height="48" viewBox="0 0 108 48" fill="none" xmlns="http://www.w3.org/2000/svg">
<path fill-rule="evenodd" clip-rule="evenodd" d="M30.2583 3.11187C33.3999 0.846347 35.0512 0.000396694 38.2533 0.000396694L38.7938 0C38.7938 0 38.2753 0.798347 37.684 1.77402L29.1733 15.9802C28.2445 17.5208 27.7333 19.0915 27.5899 20.6019H23.9776C24.2018 18.8198 24.8436 17.1582 26.1803 14.8324L32.4207 4.70519L24.0128 10.774H28.0047C28.0047 10.774 26.6593 12.8979 24.2333 12.9665C24.2222 12.9628 22.8199 13.0141 20.8041 13.0901L10.3968 20.6019H5.99927L16.1739 13.2662C11.4056 13.4489 6.28985 13.6473 6.28985 13.6473L8.0476 12.0228C9.29064 10.8522 10.8629 10.774 12.8313 10.774H19.6309L30.2583 3.11187ZM44.5141 0.934017L35.5486 15.9802C34.6184 17.5208 34.1086 19.0915 33.967 20.6019H30.4527C30.6919 18.6988 31.4359 16.8863 32.9786 14.2885L39.2532 3.77316C40.5061 1.68893 41.7551 0.934017 44.0206 0.934017H44.5141ZM47.1363 9.03015C42.5899 9.03015 39.7958 11.6783 37.3288 17.4756C36.7121 18.9306 36.3597 20.7354 38.4615 20.7128C39.6598 20.6979 41.6585 20.0432 43.0682 19.0717C42.9531 19.5441 42.8869 20.2068 42.9373 20.6019H46.1269C46.2375 19.3585 46.7158 17.8104 47.7656 15.9275L51.7528 9.27669C50.2374 9.11306 48.6971 9.03015 47.1363 9.03015ZM43.8235 16.7304C43.1663 17.3371 41.8977 18.2535 40.8252 18.2862C40.0878 18.2535 40.06 17.5613 40.5559 16.6072C42.4489 12.9798 44.4375 11.0616 46.8919 11.069H47.3376L43.8235 16.7304ZM70.1207 17.4756C72.5876 11.6783 75.3817 9.03015 79.928 9.03015C81.4886 9.03015 83.0292 9.11306 84.5447 9.27669L80.5574 15.9275C79.5075 17.8104 79.0293 19.3585 78.9184 20.6019H75.729C75.6786 20.2068 75.745 19.5441 75.8601 19.0717C74.4502 20.0432 72.4517 20.6979 71.2535 20.7128C69.1514 20.7354 69.5039 18.9306 70.1207 17.4756ZM73.6172 18.2862C74.6895 18.2535 75.9583 17.3371 76.6152 16.7304L80.1293 11.069H79.6836C77.2293 11.0616 75.2409 12.9798 73.3478 16.6072C72.852 17.5613 72.8797 18.2535 73.6172 18.2862ZM69.5608 23.809H68.5187C67.1616 23.809 65.9737 22.9053 65.6137 21.5988L64.0279 15.6179L61.0648 20.6019H57.6665L67.1542 4.54175C68.3775 2.45752 69.6538 1.69964 71.9195 1.69964H72.2668L65.9644 12.3445L70.6912 9.08787H74.4846L66.54 14.5757L66.535 14.5781L69.5608 23.809ZM55.1915 12.288C55.1475 12.5921 55.2727 12.7759 55.8834 13.171L56.8571 13.8111C57.9119 14.5127 58.3383 15.548 58.2136 16.4037C57.8603 18.7831 56.1089 20.7011 52.3903 20.7035C50.7618 20.7035 50.0284 20.6519 48.0883 20.3282L49.5331 17.8949C50.8773 18.1281 51.6447 18.2505 52.6503 18.2481C54.051 18.2481 54.6104 17.6166 54.6885 17.0991C54.733 16.7925 54.5858 16.4384 53.9211 15.9794L53.1484 15.4324C51.9099 14.5498 51.586 13.848 51.748 12.7513C52.0594 10.6443 54.4975 9.03074 57.8823 9.03074C58.9445 9.02797 60.1094 9.09937 61.3726 9.23167L60.0137 11.5301C59.1823 11.4613 57.8286 11.4 56.8743 11.4317C55.8955 11.4637 55.2627 11.7999 55.1915 12.288ZM81.8581 19.7288C81.8581 19.8036 81.8075 19.848 81.7167 19.848H81.6118V19.6058H81.7167C81.8075 19.6058 81.8581 19.6502 81.8581 19.7288ZM81.4584 20.284H81.6118V19.9811H81.6723L81.8418 20.284H82.0174L81.8359 19.967C81.9406 19.9327 82.0132 19.8399 82.0132 19.7268C82.0132 19.5836 81.8964 19.4725 81.7389 19.4725H81.4584V20.284ZM82.282 19.8843C82.282 20.2233 82.0277 20.4837 81.7046 20.4837C81.3817 20.4837 81.1272 20.2233 81.1272 19.8843C81.1272 19.5451 81.3817 19.2869 81.7046 19.2869C82.0277 19.2869 82.282 19.5451 82.282 19.8843ZM82.4452 19.8843C82.4452 19.4745 82.1144 19.1395 81.7046 19.1395C81.297 19.1395 80.9699 19.4745 80.9699 19.8843C80.9699 20.2941 81.297 20.6311 81.7046 20.6311C82.1144 20.6311 82.4452 20.2941 82.4452 19.8843Z" fill="#0074C8"/>
<path d="M47.2553 36.304C47.7473 36.304 48.1793 36.244 48.5513 36.124C48.9293 36.004 49.2443 35.836 49.4963 35.62C49.7483 35.398 49.9373 35.137 50.0633 34.837C50.1893 34.531 50.2523 34.195 50.2523 33.829C50.2523 33.085 50.0063 32.524 49.5143 32.146C49.0283 31.768 48.2963 31.579 47.3183 31.579H45.5093V36.304H47.2553ZM53.2853 43H51.5753C51.2333 43 50.9843 42.865 50.8283 42.595L47.6333 38.113C47.5313 37.963 47.4203 37.858 47.3003 37.798C47.1803 37.732 47.0003 37.699 46.7603 37.699H45.5093V43H43.5923V30.076H47.3183C48.1523 30.076 48.8693 30.163 49.4693 30.337C50.0753 30.505 50.5733 30.748 50.9633 31.066C51.3593 31.378 51.6503 31.756 51.8363 32.2C52.0283 32.644 52.1243 33.142 52.1243 33.694C52.1243 34.144 52.0553 34.567 51.9173 34.963C51.7793 35.359 51.5753 35.716 51.3053 36.034C51.0413 36.346 50.7173 36.616 50.3333 36.844C49.9493 37.072 49.5143 37.246 49.0283 37.366C49.2683 37.51 49.4753 37.711 49.6493 37.969L53.2853 43ZM61.7647 38.185L59.8477 33.172C59.7097 32.83 59.5717 32.398 59.4337 31.876C59.3677 32.134 59.2987 32.374 59.2267 32.596C59.1607 32.818 59.0947 33.016 59.0287 33.19L57.1207 38.185H61.7647ZM65.5537 43H64.0777C63.9097 43 63.7717 42.958 63.6637 42.874C63.5557 42.79 63.4777 42.682 63.4297 42.55L62.2867 39.553H56.5897L55.4467 42.55C55.4047 42.664 55.3267 42.769 55.2127 42.865C55.0987 42.955 54.9607 43 54.7987 43H53.3227L58.4707 30.076H60.4057L65.5537 43ZM69.0433 43H67.1173V30.076H69.0433V43ZM82.7665 30.076V43H81.7945C81.6445 43 81.5185 42.973 81.4165 42.919C81.3205 42.865 81.2215 42.778 81.1195 42.658L73.8205 33.217C73.8325 33.379 73.8415 33.538 73.8475 33.694C73.8595 33.85 73.8655 33.997 73.8655 34.135V43H72.1825V30.076H73.1725C73.3405 30.076 73.4665 30.097 73.5505 30.139C73.6345 30.175 73.7275 30.262 73.8295 30.4L81.1465 39.85C81.1285 39.676 81.1135 39.508 81.1015 39.346C81.0955 39.178 81.0925 39.022 81.0925 38.878V30.076H82.7665Z" fill="#0074C8"/>
</svg>
